grf
version=1
nRows=14
nColumns=37
inDegrees=no
endheader
time	ground_force_1_vx	ground_force_1_vy	ground_force_1_vz	ground_force_1_px	ground_force_1_py	ground_force_1_pz	ground_moment_1_mx	ground_moment_1_my	ground_moment_1_mz	ground_force_2_vx	ground_force_2_vy	ground_force_2_vz	ground_force_2_px	ground_force_2_py	ground_force_2_pz	ground_moment_2_mx	ground_moment_2_my	ground_moment_2_mz	ground_force_3_vx	ground_force_3_vy	ground_force_3_vz	ground_force_3_px	ground_force_3_py	ground_force_3_pz	ground_moment_3_mx	ground_moment_3_my	ground_moment_3_mz	ground_force_4_vx	ground_force_4_vy	ground_force_4_vz	ground_force_4_px	ground_force_4_py	ground_force_4_pz	ground_moment_4_mx	ground_moment_4_my	ground_moment_4_mz
      5.13000000	      0.00000000	     -0.00000000	      0.00000000	      0.00000000	      0.00000000	      0.00000000	      0.00000000	      0.00000000	      0.00000000	      9.13417721	     26.45357704	   -148.26687622	   -322.73287737	  -1107.44035239	      0.00000000	      0.00000000	      0.00000000	    851.15016557	      3.77940176	    -19.25412783	   -126.66965485	   -302.41139622	   -762.52959240	      0.00000000	      0.00000000	     -0.00000000	   -524.01938523	      0.00000000	     -0.00000000	      0.00000000	      0.00000000	      0.00000000	      0.00000000	      0.00000000	      0.00000000	      0.00000000
      5.14000000	      0.00000000	     -0.00000000	      0.00000000	      0.00000000	      0.00000000	      0.00000000	      0.00000000	      0.00000000	      0.00000000	      7.72549915	     25.15266418	   -139.36428833	   -322.04451759	  -1106.18676223	      0.00000000	      0.00000000	      0.00000000	    937.88717934	      4.08069453	    -18.03664243	   -120.80263519	   -302.60047569	   -764.77693118	      0.00000000	      0.00000000	     -0.00000000	   -538.55016846	      0.00000000	     -0.00000000	      0.00000000	      0.00000000	      0.00000000	      0.00000000	      0.00000000	      0.00000000	      0.00000000
      5.15000000	      0.00000000	     -0.00000000	      0.00000000	      0.00000000	      0.00000000	      0.00000000	      0.00000000	      0.00000000	      0.00000000	      5.44184113	     23.78009605	   -134.49029541	   -318.70326559	  -1106.94745243	      0.00000000	      0.00000000	      0.00000000	    866.79081829	      3.70898407	    -17.11652597	   -119.48054504	   -303.87201640	   -763.96413043	      0.00000000	      0.00000000	     -0.00000000	   -532.54803468	      0.00000000	     -0.00000000	      0.00000000	      0.00000000	      0.00000000	      0.00000000	      0.00000000	      0.00000000	      0.00000000
      5.16000000	      0.00000000	     -0.00000000	      0.00000000	      0.00000000	      0.00000000	      0.00000000	      0.00000000	      0.00000000	      0.00000000	      3.28331375	     21.78457069	   -128.77230835	   -314.87710976	  -1110.43285388	      0.00000000	      0.00000000	      0.00000000	    797.40745592	      3.58403775	    -16.69279893	   -119.20043945	   -306.96517209	   -765.05671067	      0.00000000	      0.00000000	     -0.00000000	   -701.30914597	      0.00000000	     -0.00000000	      0.00000000	      0.00000000	      0.00000000	      0.00000000	      0.00000000	      0.00000000	      0.00000000
      5.17000000	      0.00000000	     -0.00000000	      0.00000000	      0.00000000	      0.00000000	      0.00000000	      0.00000000	      0.00000000	      0.00000000	      1.23170018	     20.03859520	   -123.18562317	   -312.66069498	  -1108.24848952	      0.00000000	      0.00000000	      0.00000000	    726.67610744	      4.45301200	    -16.25119057	   -121.99410248	   -307.92921874	   -763.93797871	      0.00000000	      0.00000000	     -0.00000000	   -928.66568412	      0.00000000	     -0.00000000	      0.00000000	      0.00000000	      0.00000000	      0.00000000	      0.00000000	      0.00000000	      0.00000000
      5.18000000	      0.00000000	     -0.00000000	      0.00000000	      0.00000000	      0.00000000	      0.00000000	      0.00000000	      0.00000000	      0.00000000	      0.65844673	     18.46696472	   -118.23956299	   -309.82597689	  -1109.14912476	      0.00000000	      0.00000000	      0.00000000	    877.02586102	      4.38257507	    -15.96777382	   -126.81497955	   -312.69206177	   -766.99835955	      0.00000000	      0.00000000	     -0.00000000	   -839.31729559	      0.00000000	     -0.00000000	      0.00000000	      0.00000000	      0.00000000	      0.00000000	      0.00000000	      0.00000000	      0.00000000
      5.19000000	      0.00000000	     -0.00000000	      0.00000000	      0.00000000	      0.00000000	      0.00000000	      0.00000000	      0.00000000	      0.00000000	      0.87531769	     15.98788643	   -114.83950043	   -311.74881910	  -1107.83032170	      0.00000000	      0.00000000	      0.00000000	   1114.39531769	      4.29577492	    -16.55184593	   -135.74586487	   -312.82180703	   -765.49634391	      0.00000000	      0.00000000	     -0.00000000	   -874.41513821	      0.00000000	     -0.00000000	      0.00000000	      0.00000000	      0.00000000	      0.00000000	      0.00000000	      0.00000000	      0.00000000
      5.20000000	      0.00000000	     -0.00000000	      0.00000000	      0.00000000	      0.00000000	      0.00000000	      0.00000000	      0.00000000	      0.00000000	      2.40868378	     14.49196243	   -114.86173248	   -312.82191770	  -1106.87710284	      0.00000000	      0.00000000	      0.00000000	   1224.67204930	      3.83373278	    -17.09623370	   -147.26652527	   -316.87215468	   -770.83206904	      0.00000000	      0.00000000	     -0.00000000	  -1134.41808711	      0.00000000	     -0.00000000	      0.00000000	      0.00000000	      0.00000000	      0.00000000	      0.00000000	      0.00000000	      0.00000000
      5.21000000	      0.00000000	     -0.00000000	      0.00000000	      0.00000000	      0.00000000	      0.00000000	      0.00000000	      0.00000000	      0.00000000	      4.63894653	     13.41850853	   -123.67762756	   -317.73933595	  -1105.16206680	      0.00000000	      0.00000000	      0.00000000	   1610.18088933	      3.67321434	    -17.45177873	   -162.75823975	   -318.64678645	   -770.82683343	      0.00000000	      0.00000000	     -0.00000000	  -1374.98680271	      0.00000000	     -0.00000000	      0.00000000	      0.00000000	      0.00000000	      0.00000000	      0.00000000	      0.00000000	      0.00000000
      5.22000000	      0.00000000	     -0.00000000	      0.00000000	      0.00000000	      0.00000000	      0.00000000	      0.00000000	      0.00000000	      0.00000000	     10.68033218	     11.87925053	   -144.20712280	   -327.63450381	  -1101.68648166	      0.00000000	      0.00000000	      0.00000000	   2156.68518714	      4.66187223	    -18.10236781	   -181.41635132	   -321.60210785	   -773.30348557	      0.00000000	      0.00000000	     -0.00000000	  -1602.89093435	      0.00000000	     -0.00000000	      0.00000000	      0.00000000	      0.00000000	      0.00000000	      0.00000000	      0.00000000	      0.00000000
      5.23000000	      0.00000000	     -0.00000000	      0.00000000	      0.00000000	      0.00000000	      0.00000000	      0.00000000	      0.00000000	      0.00000000	     21.67322350	     10.10837269	   -181.86814880	   -337.06818383	  -1096.29895357	      0.00000000	      0.00000000	      0.00000000	   2379.82800013	      8.10079793	    -18.59973215	   -207.77638245	   -326.12178611	   -771.78960856	      0.00000000	      0.00000000	     -0.00000000	  -1829.52793557	      0.00000000	     -0.00000000	      0.00000000	      0.00000000	      0.00000000	      0.00000000	      0.00000000	      0.00000000	      0.00000000
      5.24000000	      0.00000000	     -0.00000000	      0.00000000	      0.00000000	      0.00000000	      0.00000000	      0.00000000	      0.00000000	      0.00000000	     34.77095413	     12.78789616	   -236.46315002	   -348.55175604	  -1090.94633257	      0.00000000	      0.00000000	      0.00000000	   3052.83446418	     15.83815213	    -19.55071016	   -238.16555786	   -328.84220398	   -772.26262884	      0.00000000	      0.00000000	     -0.00000000	  -2133.16936933	      0.00000000	     -0.00000000	      0.00000000	      0.00000000	      0.00000000	      0.00000000	      0.00000000	      0.00000000	      0.00000000
      5.25000000	      0.00000000	     -0.00000000	      0.00000000	      0.00000000	      0.00000000	      0.00000000	      0.00000000	      0.00000000	      0.00000000	     36.58238220	     17.57408714	   -305.47662354	   -351.94736948	  -1088.19206806	      0.00000000	      0.00000000	      0.00000000	   3558.48284922	     25.49129478	    -22.72983965	   -275.09030151	   -332.98444577	   -773.23007992	      0.00000000	      0.00000000	     -0.00000000	  -2358.36253765	      0.00000000	     -0.00000000	      0.00000000	      0.00000000	      0.00000000	      0.00000000	      0.00000000	      0.00000000	      0.00000000
      5.26000000	      0.00000000	     -0.00000000	      0.00000000	      0.00000000	      0.00000000	      0.00000000	      0.00000000	      0.00000000	      0.00000000	     24.01950455	     23.29331207	   -360.83666992	   -351.00033491	  -1088.41562815	      0.00000000	      0.00000000	      0.00000000	   3485.30463693	     30.42779676	    -28.21111945	   -315.38195801	   -334.67303957	   -773.64371860	      0.00000000	     -0.00000000	     -0.00000000	  -2559.70594351	      0.00000000	     -0.00000000	      0.00000000	      0.00000000	      0.00000000	      0.00000000	      0.00000000	      0.00000000	      0.00000000
